<svg width="231" height="278" viewBox="0 0 231 278" fill="none" xmlns="http://www.w3.org/2000/svg">
  <defs>
    <!-- Premium drop shadow for the card -->
    <filter id="card_shadow" x="15" y="5" width="201" height="261" filterUnits="userSpaceOnUse" color-interpolation-filters="sRGB">
      <feFlood flood-opacity="0" result="BackgroundImageFix"/>
      <feColorMatrix in="SourceAlpha" type="matrix" values="0 0 0 0 0 0 0 0 0 0 0 0 0 0 0 0 0 0 127 0" result="hardAlpha"/>
      <feOffset dy="10"/>
      <feGaussianBlur stdDeviation="10"/>
      <feColorMatrix type="matrix" values="0 0 0 0 0 0 0 0 0 0 0 0 0 0 0 0 0 0 0.08 0"/>
      <feBlend mode="normal" in2="BackgroundImageFix" result="effect1_dropShadow"/>
      <feBlend mode="normal" in="SourceGraphic" in2="effect1_dropShadow" result="shape"/>
    </filter>
  </defs>

  <!-- Base Rounded Card (represents the design canvas) -->
  <rect x="35" y="15" width="161" height="221" rx="20" fill="#F4F4F5" filter="url(#card_shadow)"/>

  <!-- Logo (Top element) -->
  <!-- Stylized Brand Identity Sparkle/Icon -->
  <g transform="translate(115.5, 60)">
    <!-- Brand Grid circle -->
    <circle cx="0" cy="0" r="24" stroke="#D4D4D8" stroke-width="1.2" stroke-dasharray="2 2" fill="none"/>
    <!-- Logo element: A glowing pink core star/sparkle -->
    <path d="M0,-16 Q0,0 -16,0 Q0,0 0,16 Q0,0 16,0 Q0,0 0,-16 Z" fill="#df2d6d"/>
    <circle cx="0" cy="0" r="4" fill="white"/>
  </g>

  <!-- Guidelines (Connecting lines representing consistency/alignment) -->
  <!-- Vertical dashed line from logo to website -->
  <line x1="115.5" y1="84" x2="115.5" y2="135" stroke="#df2d6d" stroke-width="1.5" stroke-dasharray="3 3"/>
  <!-- Guideline anchor nodes -->
  <circle cx="115.5" cy="108" r="3" fill="#df2d6d"/>

  <!-- Website Mockup (Bottom element) -->
  <g transform="translate(65.5, 135)">
    <!-- Browser window box -->
    <rect x="0" y="0" width="100" height="75" rx="6" fill="white" stroke="#E4E4E7" stroke-width="1.5"/>
    <!-- Browser header bar -->
    <rect x="0" y="0" width="100" height="15" rx="6" fill="#F4F4F5"/>
    <rect x="0" y="9" width="100" height="6" fill="#F4F4F5"/>
    <!-- Browser dots -->
    <circle cx="8" cy="8" r="1.5" fill="#df2d6d"/>
    <circle cx="14" cy="8" r="1.5" fill="#D4D4D8"/>
    <circle cx="20" cy="8" r="1.5" fill="#D4D4D8"/>
    
    <!-- Website Content: Logo Consistency (matched pink sparkle in the website header!) -->
    <path d="M50,7 Q50,11 47,11 Q50,11 50,15 Q50,11 53,11 Q50,11 50,7 Z" fill="#df2d6d" transform="scale(0.7) translate(21, -1)"/>
    <!-- Website text lines -->
    <line x1="8" y1="26" x2="45" y2="26" stroke="#A1A1AA" stroke-width="2" stroke-linecap="round"/>
    <line x1="8" y1="34" x2="35" y2="34" stroke="#D4D4D8" stroke-width="1.5" stroke-linecap="round"/>
    
    <!-- Website Main Image card -->
    <rect x="8" y="42" width="45" height="23" rx="3" fill="#F4F4F5"/>
    <!-- Mini layout grids inside image card -->
    <circle cx="18" cy="53" r="3" fill="#E4E4E7"/>
    <line x1="26" y1="50" x2="48" y2="50" stroke="#E4E4E7" stroke-width="1.5" stroke-linecap="round"/>
    <line x1="26" y1="55" x2="42" y2="55" stroke="#E4E4E7" stroke-width="1.5" stroke-linecap="round"/>

    <!-- Website sidebar widgets -->
    <rect x="60" y="26" width="32" height="39" rx="3" fill="#FAFAFA" stroke="#E4E4E7" stroke-width="1"/>
    <circle cx="76" cy="38" r="6" fill="#df2d6d" fill-opacity="0.1"/>
    <!-- Aligned sparkle in the widget! -->
    <path d="M76,34 Q76,38 73,38 Q76,38 76,42 Q76,38 79,38 Q76,38 76,34 Z" fill="#df2d6d" transform="scale(0.8) translate(19, 10)"/>
    <line x1="66" y1="50" x2="86" y2="50" stroke="#D4D4D8" stroke-width="1.5" stroke-linecap="round"/>
    <line x1="70" y1="56" x2="82" y2="56" stroke="#E4E4E7" stroke-width="1" stroke-linecap="round"/>
  </g>
</svg>
