<svg width="239" height="361" viewBox="0 0 239 361" fill="none" xmlns="http://www.w3.org/2000/svg">
<g clip-path="url(#clip0_6045_478)">
<g filter="url(#filter0_dddd_6045_478)">
<path d="M207 8.23047H32C23.1634 8.23047 16 15.3939 16 24.2305V321.23C16 330.067 23.1634 337.23 32 337.23H207C215.837 337.23 223 330.067 223 321.23V24.2305C223 15.3939 215.837 8.23047 207 8.23047Z" fill="#1B1922"/>
<!-- Dashboard / Analytics Overlay -->
<g transform="translate(0, 0)">
  <!-- Header Text -->
  <rect x="36" y="32" width="70" height="8" rx="2" fill="white" fill-opacity="0.9"/>
  <rect x="36" y="46" width="45" height="5" rx="1.5" fill="white" fill-opacity="0.6"/>
  
  <!-- Main White Card -->
  <rect x="36" y="72" width="167" height="152" rx="12" fill="white"/>
  
  <!-- Chart Grids -->
  <line x1="52" y1="122" x2="188" y2="122" stroke="#F4F4F5" stroke-width="1.2"/>
  <line x1="52" y1="152" x2="188" y2="152" stroke="#F4F4F5" stroke-width="1.2"/>
  <line x1="52" y1="182" x2="188" y2="182" stroke="#F4F4F5" stroke-width="1.2"/>
  
  <!-- Area Chart Underlay -->
  <path d="M52,192 L75,172 L100,152 L125,167 L150,132 L175,112 L188,102 L188,192 Z" fill="url(#chart_grad)"/>
  
  <!-- Line Chart Path -->
  <path d="M52,192 L75,172 L100,152 L125,167 L150,132 L175,112 L188,102" fill="none" stroke="#df2d6d" stroke-width="3" stroke-linecap="round" stroke-linejoin="round"/>
  
  <!-- Node Anchors -->
  <circle cx="188" cy="102" r="4.5" fill="#df2d6d" stroke="white" stroke-width="1.5"/>
  <circle cx="150" cy="132" r="3" fill="#df2d6d" stroke="white" stroke-width="1"/>
  
  <!-- Stats label -->
  <text x="52" y="98" font-family="'Urbanist', sans-serif" font-weight="700" font-size="12" fill="#18181B">Conversions</text>
  <text x="188" y="98" text-anchor="end" font-family="'Urbanist', sans-serif" font-weight="700" font-size="12" fill="#df2d6d">+124%</text>

  <!-- Bottom checklists representing business goals -->
  <!-- Check 1 -->
  <circle cx="46" cy="254" r="7" fill="#df2d6d"/>
  <path d="M43,254 L45,256 L49,252" stroke="white" stroke-width="1.2" stroke-linecap="round" stroke-linejoin="round" fill="none"/>
  <rect x="62" y="250" width="105" height="8" rx="2" fill="white" fill-opacity="0.9"/>
  
  <!-- Check 2 -->
  <circle cx="46" cy="279" r="7" fill="#df2d6d"/>
  <path d="M43,279 L45,281 L49,277" stroke="white" stroke-width="1.2" stroke-linecap="round" stroke-linejoin="round" fill="none"/>
  <rect x="62" y="275" width="85" height="8" rx="2" fill="white" fill-opacity="0.9"/>
</g>
</g>
</g>
<defs>
<linearGradient id="chart_grad" x1="0" y1="0" x2="0" y2="1">
  <stop offset="0%" stop-color="#df2d6d" stop-opacity="0.3"/>
  <stop offset="100%" stop-color="#df2d6d" stop-opacity="0.0"/>
</linearGradient>
<filter id="filter0_dddd_6045_478" x="0" y="0.000468731" width="239" height="361" filterUnits="userSpaceOnUse" color-interpolation-filters="sRGB">
<feFlood flood-opacity="0" result="BackgroundImageFix"/>
<feColorMatrix in="SourceAlpha" type="matrix" values="0 0 0 0 0 0 0 0 0 0 0 0 0 0 0 0 0 0 127 0" result="hardAlpha"/>
<feOffset dy="7.77"/>
<feGaussianBlur stdDeviation="8"/>
<feColorMatrix type="matrix" values="0 0 0 0 0 0 0 0 0 0 0 0 0 0 0 0 0 0 0.0597 0"/>
<feBlend mode="normal" in2="BackgroundImageFix" result="effect1_dropShadow_6045_478"/>
<feColorMatrix in="SourceAlpha" type="matrix" values="0 0 0 0 0 0 0 0 0 0 0 0 0 0 0 0 0 0 127 0" result="hardAlpha"/>
<feOffset dy="3"/>
<feGaussianBlur stdDeviation="1.5"/>
<feComposite in2="hardAlpha" operator="out"/>
<feColorMatrix type="matrix" values="0 0 0 0 0 0 0 0 0 0 0 0 0 0 0 0 0 0 0.1 0"/>
<feBlend mode="normal" in2="effect1_dropShadow_6045_478" result="effect2_dropShadow_6045_478"/>
<feColorMatrix in="SourceAlpha" type="matrix" values="0 0 0 0 0 0 0 0 0 0 0 0 0 0 0 0 0 0 127 0" result="hardAlpha"/>
<feOffset dy="-8"/>
<feComposite in2="hardAlpha" operator="out"/>
<feColorMatrix type="matrix" values="0 0 0 0 0 0 0 0 0 0 0 0 0 0 0 0 0 0 0.05 0"/>
<feBlend mode="normal" in2="effect2_dropShadow_6045_478" result="effect3_dropShadow_6045_478"/>
<feColorMatrix in="SourceAlpha" type="matrix" values="0 0 0 0 0 0 0 0 0 0 0 0 0 0 0 0 0 0 127 0" result="hardAlpha"/>
<feOffset dy="4"/>
<feComposite in2="hardAlpha" operator="out"/>
<feColorMatrix type="matrix" values="0 0 0 0 1 0 0 0 0 1 0 0 0 0 1 0 0 0 0.6 0"/>
<feBlend mode="normal" in2="effect3_dropShadow_6045_478" result="effect4_dropShadow_6045_478"/>
<feBlend mode="normal" in="SourceGraphic" in2="effect4_dropShadow_6045_478" result="shape"/>
</filter>
<clipPath id="clip0_6045_478">
<rect width="239" height="361" fill="white"/>
</clipPath>
</defs>
</svg>
