<svg width="133" height="136" viewBox="0 -48 133 136" fill="none" xmlns="http://www.w3.org/2000/svg">
<g filter="url(#filter0_d_6054_411)">
<mask id="mask0_6054_411" style="mask-type:luminance" maskUnits="userSpaceOnUse" x="17" y="-39" width="93" height="93">
<path d="M105.498 -9.65869L57.0005 -37.6587C53.1741 -39.8678 48.2814 -38.5568 46.0723 -34.7305L18.0723 13.7669C15.8631 17.5933 17.1741 22.486 21.0005 24.6951L69.4979 52.6951C73.3242 54.9043 78.217 53.5933 80.4261 49.7669L108.426 1.26951C110.635 -2.55683 109.324 -7.44955 105.498 -9.65869Z" fill="white"/>
</mask>
<g mask="url(#mask0_6054_411)">
<path d="M105.498 -9.65869L57.0005 -37.6587C53.1741 -39.8678 48.2814 -38.5568 46.0723 -34.7305L18.0723 13.7669C15.8631 17.5933 17.1741 22.486 21.0005 24.6951L69.4979 52.6951C73.3242 54.9043 78.217 53.5933 80.4261 49.7669L108.426 1.26951C110.635 -2.55683 109.324 -7.44955 105.498 -9.65869Z" fill="#FFFFFF"/>
</g>
<!-- Web Design & UI/UX Overlay -->
<g transform="translate(63.5, 8.5) rotate(30)">
  <!-- Browser outline/wireframe -->
  <rect x="-24" y="-20" width="48" height="40" rx="4" stroke="#000000" stroke-width="1.5" fill="none" stroke-opacity="0.8"/>
  <line x1="-24" y1="-12" x2="24" y2="-12" stroke="#000000" stroke-width="1.2" stroke-opacity="0.8"/>
  <!-- Browser window control dots -->
  <circle cx="-19" cy="-16" r="1.2" fill="#000000" fill-opacity="0.8"/>
  <circle cx="-15" cy="-16" r="1.2" fill="#000000" fill-opacity="0.8"/>
  <circle cx="-11" cy="-16" r="1.2" fill="#000000" fill-opacity="0.8"/>
  <!-- Wireframe layout elements -->
  <rect x="-18" y="-7" width="22" height="15" rx="1.5" stroke="#000000" stroke-width="1" stroke-dasharray="1.5 1.5" fill="none" stroke-opacity="0.6"/>
  <line x1="-18" y1="-7" x2="4" y2="8" stroke="#000000" stroke-width="0.8" stroke-opacity="0.4"/>
  <line x1="4" y1="-7" x2="-18" y2="8" stroke="#000000" stroke-width="0.8" stroke-opacity="0.4"/>
  <!-- Wireframe sidebar text blocks -->
  <line x1="8" y1="-5" x2="18" y2="-5" stroke="#000000" stroke-width="1.5" stroke-linecap="round" stroke-opacity="0.7"/>
  <line x1="8" y1="-1" x2="16" y2="-1" stroke="#000000" stroke-width="1.5" stroke-linecap="round" stroke-opacity="0.7"/>
  <line x1="8" y1="3" x2="18" y2="3" stroke="#000000" stroke-width="1.5" stroke-linecap="round" stroke-opacity="0.7"/>
  <!-- Designer Pen/Anchor point element representing guidelines -->
  <circle cx="-8" cy="13" r="2.5" fill="#e91e8c"/>
  <circle cx="12" cy="13" r="2.5" fill="#e91e8c"/>
  <line x1="-8" y1="13" x2="12" y2="13" stroke="#e91e8c" stroke-width="1.2" stroke-dasharray="2 2"/>
</g>
</g>
<defs>
<filter id="filter0_d_6054_411" x="0" y="-45.7319" width="132.5" height="132.5" filterUnits="userSpaceOnUse" color-interpolation-filters="sRGB">
<feFlood flood-opacity="0" result="BackgroundImageFix"/>
<feColorMatrix in="SourceAlpha" type="matrix" values="0 0 0 0 0 0 0 0 0 0 0 0 0 0 0 0 0 0 127 0" result="hardAlpha"/>
<feOffset dx="3" dy="13"/>
<feGaussianBlur stdDeviation="10"/>
<feComposite in2="hardAlpha" operator="out"/>
<feColorMatrix type="matrix" values="0 0 0 0 0 0 0 0 0 0 0 0 0 0 0 0 0 0 0.1 0"/>
<feBlend mode="normal" in2="BackgroundImageFix" result="effect1_dropShadow_6054_411"/>
<feBlend mode="normal" in="SourceGraphic" in2="effect1_dropShadow_6054_411" result="shape"/>
</filter>
</defs>
</svg>
