<svg width="105" height="105" viewBox="0 0 105 105" fill="none" xmlns="http://www.w3.org/2000/svg">
<g filter="url(#filter0_d_6054_432)">
<path d="M76.0617 17.6274L37.4247 7.27465C33.1569 6.13112 28.7702 8.66378 27.6267 12.9315L17.274 51.5685C16.1304 55.8363 18.6631 60.223 22.9308 61.3665L61.5678 71.7193C65.8356 72.8628 70.2223 70.3301 71.3658 66.0624L81.7186 27.4254C82.8621 23.1576 80.3294 18.771 76.0617 17.6274Z" fill="#FFFFFF"/>
<!-- Web Dev & Motion Design Overlay -->
<g transform="translate(49.5, 39.5) rotate(-15)">
  <!-- Code Brackets </> in black -->
  <path d="M-15,-10 L-22,-2 L-15,6" fill="none" stroke="#000000" stroke-width="2.5" stroke-linecap="round" stroke-linejoin="round"/>
  <path d="M15,-10 L22,-2 L15,6" fill="none" stroke="#000000" stroke-width="2.5" stroke-linecap="round" stroke-linejoin="round"/>
  <line x1="4" y1="-15" x2="-4" y2="11" stroke="#000000" stroke-width="2.5" stroke-linecap="round"/>
  <!-- Motion Design Wave in brand color -->
  <path d="M-22,17 Q-11,9 0,17 T22,17" fill="none" stroke="#e91e8c" stroke-width="2.2" stroke-linecap="round" stroke-linejoin="round"/>
</g>
</g>
<defs>
<filter id="filter0_d_6054_432" x="0" y="0" width="104.992" height="104.994" filterUnits="userSpaceOnUse" color-interpolation-filters="sRGB">
<feFlood flood-opacity="0" result="BackgroundImageFix"/>
<feColorMatrix in="SourceAlpha" type="matrix" values="0 0 0 0 0 0 0 0 0 0 0 0 0 0 0 0 0 0 127 0" result="hardAlpha"/>
<feOffset dx="3" dy="13"/>
<feGaussianBlur stdDeviation="10"/>
<feComposite in2="hardAlpha" operator="out"/>
<feColorMatrix type="matrix" values="0 0 0 0 0 0 0 0 0 0 0 0 0 0 0 0 0 0 0.1 0"/>
<feBlend mode="normal" in2="BackgroundImageFix" result="effect1_dropShadow_6054_432"/>
<feBlend mode="normal" in="SourceGraphic" in2="effect1_dropShadow_6054_432" result="shape"/>
</filter>
</defs>
</svg>
