<svg width="133" height="80" viewBox="0 0 133 80" fill="none" xmlns="http://www.w3.org/2000/svg">
<g clip-path="url(#clip0_6045_570)">
<g filter="url(#filter0_d_6045_570)">
<mask id="mask0_6045_570" style="mask-type:luminance" maskUnits="userSpaceOnUse" x="17" y="-39" width="93" height="93">
<path d="M105.498 -9.65869L57.0005 -37.6587C53.1741 -39.8678 48.2814 -38.5568 46.0723 -34.7305L18.0723 13.7669C15.8631 17.5933 17.1741 22.486 21.0005 24.6951L69.4979 52.6951C73.3242 54.9043 78.217 53.5933 80.4261 49.7669L108.426 1.26951C110.635 -2.55683 109.324 -7.44955 105.498 -9.65869Z" fill="white"/>
</mask>
<g mask="url(#mask0_6045_570)">
<path d="M105.498 -9.65869L57.0005 -37.6587C53.1741 -39.8678 48.2814 -38.5568 46.0723 -34.7305L18.0723 13.7669C15.8631 17.5933 17.1741 22.486 21.0005 24.6951L69.4979 52.6951C73.3242 54.9043 78.217 53.5933 80.4261 49.7669L108.426 1.26951C110.635 -2.55683 109.324 -7.44955 105.498 -9.65869Z" fill="#8EA4BB"/>
</g>
</g>
</g>
<defs>
<filter id="filter0_d_6045_570" x="0" y="-45.7319" width="132.5" height="132.5" filterUnits="userSpaceOnUse" color-interpolation-filters="sRGB">
<feFlood flood-opacity="0" result="BackgroundImageFix"/>
<feColorMatrix in="SourceAlpha" type="matrix" values="0 0 0 0 0 0 0 0 0 0 0 0 0 0 0 0 0 0 127 0" result="hardAlpha"/>
<feOffset dx="3" dy="13"/>
<feGaussianBlur stdDeviation="10"/>
<feComposite in2="hardAlpha" operator="out"/>
<feColorMatrix type="matrix" values="0 0 0 0 0 0 0 0 0 0 0 0 0 0 0 0 0 0 0.1 0"/>
<feBlend mode="normal" in2="BackgroundImageFix" result="effect1_dropShadow_6045_570"/>
<feBlend mode="normal" in="SourceGraphic" in2="effect1_dropShadow_6045_570" result="shape"/>
</filter>
<clipPath id="clip0_6045_570">
<rect width="133" height="80" fill="white"/>
</clipPath>
</defs>
</svg>
